<svg width="15" height="11" viewBox="0 0 15 11" fill="none" xmlns="http://www.w3.org/2000/svg">
<g clip-path="url(#clip0_65_1092)">
<path d="M11.422 1.65967C10.6139 1.28297 9.73898 1.00956 8.82762 0.85159C8.81963 0.851335 8.81168 0.852834 8.80433 0.855984C8.79698 0.859133 8.79042 0.863855 8.78509 0.869818C8.67573 1.07032 8.54813 1.33158 8.46307 1.53208C7.49642 1.38626 6.51336 1.38626 5.54671 1.53208C5.46165 1.3255 5.33406 1.07032 5.21862 0.869818C5.21255 0.857666 5.19432 0.85159 5.17609 0.85159C4.26473 1.00956 3.39589 1.28297 2.58174 1.65967C2.57567 1.65967 2.56959 1.66574 2.56352 1.67182C0.910909 4.14465 0.455228 6.55065 0.680031 8.93234C0.680031 8.9445 0.686106 8.95665 0.698258 8.96272C1.7919 9.76472 2.843 10.2508 3.88196 10.5728C3.90018 10.5789 3.91841 10.5728 3.92449 10.5606C4.16752 10.2265 4.38624 9.87409 4.57459 9.50346C4.58674 9.47916 4.57459 9.45486 4.55029 9.44878C4.20397 9.31512 3.87588 9.15715 3.55386 8.97488C3.52956 8.96272 3.52956 8.92627 3.54779 8.90804C3.61462 8.85944 3.68146 8.80475 3.74829 8.75615C3.76044 8.744 3.77867 8.744 3.79082 8.75007C5.88088 9.70397 8.13498 9.70397 10.2007 8.75007C10.2129 8.744 10.2311 8.744 10.2433 8.75615C10.3101 8.81083 10.377 8.85944 10.4438 8.91412C10.4681 8.93234 10.4681 8.9688 10.4377 8.98095C10.1218 9.1693 9.78759 9.32119 9.44127 9.45486C9.41697 9.46093 9.41089 9.49131 9.41697 9.50954C9.61139 9.88016 9.83012 10.2326 10.0671 10.5667C10.0853 10.5728 10.1035 10.5789 10.1218 10.5728C11.1668 10.2508 12.2179 9.76472 13.3116 8.96272C13.3237 8.95665 13.3298 8.9445 13.3298 8.93234C13.5971 6.18003 12.8863 3.79226 11.4463 1.67182C11.4402 1.66574 11.4342 1.65967 11.422 1.65967ZM4.89053 7.48024C4.26473 7.48024 3.74221 6.90304 3.74221 6.19218C3.74221 5.48132 4.25258 4.90412 4.89053 4.90412C5.53456 4.90412 6.04492 5.48739 6.03885 6.19218C6.03885 6.90304 5.52849 7.48024 4.89053 7.48024ZM9.12533 7.48024C8.49953 7.48024 7.97701 6.90304 7.97701 6.19218C7.97701 5.48132 8.48738 4.90412 9.12533 4.90412C9.76936 4.90412 10.2797 5.48739 10.2736 6.19218C10.2736 6.90304 9.76936 7.48024 9.12533 7.48024Z" fill="white"/>
</g>
<defs>
<clipPath id="clip0_65_1092">
<rect width="14" height="10" fill="white" transform="translate(0.310059 0.580078)"/>
</clipPath>
</defs>
</svg>
