<svg width="14" height="14" viewBox="0 0 14 14" fill="none" xmlns="http://www.w3.org/2000/svg">
<g clip-path="url(#clip0_65_1096)">
<path d="M12.6419 0.71582H1.82703C1.64977 0.71582 1.47978 0.786234 1.35444 0.91157C1.2291 1.03691 1.15869 1.2069 1.15869 1.38416V12.199C1.15869 12.3763 1.2291 12.5463 1.35444 12.6716C1.47978 12.7969 1.64977 12.8674 1.82703 12.8674H7.6476V8.15862H6.0679V6.33589H7.6476V4.96885C7.61488 4.6479 7.65277 4.32368 7.75861 4.01893C7.86446 3.71418 8.0357 3.43627 8.26032 3.2047C8.48494 2.97313 8.7575 2.79351 9.05889 2.67844C9.36028 2.56336 9.6832 2.51561 10.005 2.53855C10.4779 2.53564 10.9506 2.55998 11.4207 2.61146V4.25191H10.4546C9.68905 4.25191 9.54323 4.61646 9.54323 5.14505V6.31767H11.366L11.129 8.14039H9.54323V12.8674H12.6419C12.7297 12.8674 12.8166 12.8501 12.8977 12.8165C12.9788 12.7829 13.0524 12.7337 13.1145 12.6716C13.1766 12.6095 13.2258 12.5359 13.2594 12.4548C13.293 12.3737 13.3102 12.2868 13.3102 12.199V1.38416C13.3102 1.29639 13.293 1.20948 13.2594 1.1284C13.2258 1.04731 13.1766 0.973631 13.1145 0.91157C13.0524 0.84951 12.9788 0.800281 12.8977 0.766694C12.8166 0.733107 12.7297 0.71582 12.6419 0.71582Z" fill="white"/>
</g>
<defs>
<clipPath id="clip0_65_1096">
<rect width="13" height="13" fill="white" transform="translate(0.310059 0.0800781)"/>
</clipPath>
</defs>
</svg>
