<svg width="742" height="1258" viewBox="0 0 742 1258" fill="none" xmlns="http://www.w3.org/2000/svg">
<path d="M679.718 1255.99H62.5243C29.5652 1255.99 2.59863 1229.04 2.59863 1196.11V61.8932C2.59863 28.9572 29.5652 2.00952 62.5243 2.00952H679.718C712.678 2.00952 739.644 28.9572 739.644 61.8932V1196.11C739.644 1229.04 712.678 1255.99 679.718 1255.99Z" stroke="#723A22" stroke-opacity="0.43" stroke-width="2" stroke-miterlimit="10"/>
<path d="M316.042 206.96H2.59863" stroke="#723A22" stroke-opacity="0.43" stroke-width="2" stroke-miterlimit="10"/>
<path d="M316.042 206.961L472.894 84.3799H739.644" stroke="#723A22" stroke-opacity="0.43" stroke-width="2" stroke-miterlimit="10"/>
<path d="M655.908 936.416H125.787L95.8037 896.226L57.5961 852.459V258.143C57.5961 243.252 69.7823 231.075 84.6833 231.075H655.908C670.808 231.075 682.995 243.252 682.995 258.143V909.348C682.995 924.239 670.808 936.416 655.908 936.416Z" stroke="#723A22" stroke-opacity="0.43" stroke-width="2" stroke-miterlimit="10"/>
<path d="M636.341 275.284H110.282C108.95 275.284 107.869 276.364 107.869 277.696V803.386C107.869 804.718 108.95 805.798 110.282 805.798H636.341C637.674 805.798 638.754 804.718 638.754 803.386V277.696C638.754 276.364 637.674 275.284 636.341 275.284Z" stroke="#723A22" stroke-opacity="0.43" stroke-width="2" stroke-miterlimit="10"/>
<path d="M440.498 1056.99H215.717C206.71 1056.99 199.408 1064.28 199.408 1073.28V1169.3C199.408 1178.3 206.71 1185.6 215.717 1185.6H440.498C449.505 1185.6 456.807 1178.3 456.807 1169.3V1073.28C456.807 1064.28 449.505 1056.99 440.498 1056.99Z" stroke="#723A22" stroke-opacity="0.43" stroke-width="2" stroke-miterlimit="10"/>
<path d="M625.323 980.626H585.909C584.576 980.626 583.495 981.706 583.495 983.037V1155.05C583.495 1156.38 584.576 1157.46 585.909 1157.46H625.323C626.656 1157.46 627.736 1156.38 627.736 1155.05V983.037C627.736 981.706 626.656 980.626 625.323 980.626Z" stroke="#723A22" stroke-opacity="0.43" stroke-width="2" stroke-miterlimit="10"/>
<path d="M698.118 1088.74V1049.35C698.118 1048.02 697.038 1046.94 695.705 1046.94H523.57C522.237 1046.94 521.157 1048.02 521.157 1049.35V1088.74C521.157 1090.07 522.237 1091.15 523.57 1091.15H695.705C697.038 1091.15 698.118 1090.07 698.118 1088.74Z" stroke="#723A22" stroke-opacity="0.43" stroke-width="2" stroke-miterlimit="10"/>
<path d="M120.982 1036.49C142.972 1036.49 160.798 1018.68 160.798 996.702C160.798 974.727 142.972 956.914 120.982 956.914C98.992 956.914 81.1656 974.727 81.1656 996.702C81.1656 1018.68 98.992 1036.49 120.982 1036.49Z" stroke="#723A22" stroke-opacity="0.43" stroke-width="2" stroke-miterlimit="10"/>
<path d="M172.42 897.833C190.079 897.833 204.394 883.528 204.394 865.882C204.394 848.236 190.079 833.931 172.42 833.931C154.762 833.931 140.446 848.236 140.446 865.882C140.446 883.528 154.762 897.833 172.42 897.833Z" stroke="#723A22" stroke-opacity="0.43" stroke-width="2" stroke-miterlimit="10"/>
<path d="M303.574 980.626H201.821C200.489 980.626 199.408 981.706 199.408 983.037V1004.34C199.408 1005.67 200.489 1006.75 201.821 1006.75H303.574C304.907 1006.75 305.987 1005.67 305.987 1004.34V983.037C305.987 981.706 304.907 980.626 303.574 980.626Z" stroke="#723A22" stroke-opacity="0.43" stroke-width="2" stroke-miterlimit="10"/>
<path d="M454.394 980.626H352.641C351.308 980.626 350.228 981.706 350.228 983.037V1004.34C350.228 1005.67 351.308 1006.75 352.641 1006.75H454.394C455.727 1006.75 456.807 1005.67 456.807 1004.34V983.037C456.807 981.706 455.727 980.626 454.394 980.626Z" stroke="#723A22" stroke-opacity="0.43" stroke-width="2" stroke-miterlimit="10"/>
<path d="M133.691 158.189C170.596 158.189 200.514 128.293 200.514 91.4131C200.514 54.5335 170.596 24.6367 133.691 24.6367C96.7857 24.6367 66.8679 54.5335 66.8679 91.4131C66.8679 128.293 96.7857 158.189 133.691 158.189Z" stroke="#723A22" stroke-opacity="0.43" stroke-width="2" stroke-miterlimit="10"/>
<path d="M133.691 146.153C164.644 146.153 189.736 121.078 189.736 90.1472C189.736 59.2163 164.644 34.1418 133.691 34.1418C102.738 34.1418 77.6465 59.2163 77.6465 90.1472C77.6465 121.078 102.738 146.153 133.691 146.153Z" stroke="#723A22" stroke-opacity="0.43" stroke-width="2" stroke-miterlimit="10"/>
<path d="M239.084 58.5574C246.058 58.5574 251.712 52.9074 251.712 45.9377C251.712 38.9679 246.058 33.3179 239.084 33.3179C232.109 33.3179 226.455 38.9679 226.455 45.9377C226.455 52.9074 232.109 58.5574 239.084 58.5574Z" stroke="#723A22" stroke-opacity="0.43" stroke-width="2" stroke-miterlimit="10"/>
<path d="M305.444 58.5574C312.419 58.5574 318.073 52.9074 318.073 45.9377C318.073 38.9679 312.419 33.3179 305.444 33.3179C298.47 33.3179 292.816 38.9679 292.816 45.9377C292.816 52.9074 298.47 58.5574 305.444 58.5574Z" stroke="#723A22" stroke-opacity="0.43" stroke-width="2" stroke-miterlimit="10"/>
<path d="M371.805 58.5574C378.78 58.5574 384.434 52.9074 384.434 45.9377C384.434 38.9679 378.78 33.3179 371.805 33.3179C364.831 33.3179 359.177 38.9679 359.177 45.9377C359.177 52.9074 364.831 58.5574 371.805 58.5574Z" stroke="#723A22" stroke-opacity="0.43" stroke-width="2" stroke-miterlimit="10"/>
<path d="M353.243 259.489C358.318 259.489 362.433 255.378 362.433 250.306C362.433 245.234 358.318 241.122 353.243 241.122C348.167 241.122 344.053 245.234 344.053 250.306C344.053 255.378 348.167 259.489 353.243 259.489Z" stroke="#723A22" stroke-opacity="0.43" stroke-width="2" stroke-miterlimit="10"/>
<path d="M395.472 259.489C400.548 259.489 404.662 255.378 404.662 250.306C404.662 245.234 400.548 241.122 395.472 241.122C390.397 241.122 386.282 245.234 386.282 250.306C386.282 255.378 390.397 259.489 395.472 259.489Z" stroke="#723A22" stroke-opacity="0.43" stroke-width="2" stroke-miterlimit="10"/>
</svg>
