<svg width="12" height="13" viewBox="0 0 12 13" fill="none" xmlns="http://www.w3.org/2000/svg">
<g clip-path="url(#clip0_65_1094)">
<path d="M10.0479 0.823242C10.3702 0.823242 10.6793 0.951266 10.9072 1.17915C11.135 1.40704 11.2631 1.71612 11.2631 2.0384V10.5444C11.2631 10.8667 11.135 11.1758 10.9072 11.4037C10.6793 11.6316 10.3702 11.7596 10.0479 11.7596H1.54181C1.21953 11.7596 0.910455 11.6316 0.68257 11.4037C0.454685 11.1758 0.32666 10.8667 0.32666 10.5444V2.0384C0.32666 1.71612 0.454685 1.40704 0.68257 1.17915C0.910455 0.951266 1.21953 0.823242 1.54181 0.823242H10.0479ZM9.74408 10.2407V7.02051C9.74408 6.4952 9.5354 5.9914 9.16395 5.61995C8.7925 5.2485 8.2887 5.03982 7.76339 5.03982C7.24695 5.03982 6.64545 5.35576 6.35381 5.82967V5.15526H4.65867V10.2407H6.35381V7.24532C6.35381 6.77748 6.73051 6.39471 7.19834 6.39471C7.42393 6.39471 7.64029 6.48433 7.79981 6.64385C7.95933 6.80337 8.04895 7.01972 8.04895 7.24532V10.2407H9.74408ZM2.68405 4.20136C2.95477 4.20136 3.21439 4.09382 3.40582 3.9024C3.59724 3.71098 3.70478 3.45135 3.70478 3.18064C3.70478 2.61559 3.2491 2.15383 2.68405 2.15383C2.41173 2.15383 2.15056 2.26201 1.958 2.45458C1.76543 2.64714 1.65725 2.90831 1.65725 3.18064C1.65725 3.74568 2.11901 4.20136 2.68405 4.20136ZM3.52858 10.2407V5.15526H1.8456V10.2407H3.52858Z" fill="white"/>
</g>
<defs>
<clipPath id="clip0_65_1094">
<rect width="11" height="12" fill="white" transform="translate(0.310059 0.580078)"/>
</clipPath>
</defs>
</svg>
