<svg width="11" height="7" viewBox="0 0 11 7" fill="none" xmlns="http://www.w3.org/2000/svg">
<g clip-path="url(#clip0_65_1085)">
<path d="M5.79343 3.76486C5.79343 5.27468 4.56613 6.49895 3.05144 6.49895C2.69192 6.49942 2.33582 6.42909 2.00348 6.29194C1.67114 6.1548 1.36906 5.95354 1.1145 5.69966C0.859939 5.44578 0.657877 5.14424 0.519851 4.81226C0.381824 4.48029 0.310537 4.12438 0.310059 3.76486C0.310059 2.25442 1.53736 1.03077 3.05144 1.03077C3.41102 1.03021 3.76718 1.10049 4.09959 1.23759C4.432 1.3747 4.73415 1.57594 4.98877 1.82984C5.2434 2.08373 5.44551 2.38529 5.58358 2.71731C5.72164 3.04932 5.79295 3.40528 5.79343 3.76486ZM8.80093 3.76486C8.80093 5.18658 8.18727 6.33855 7.43024 6.33855C6.6732 6.33855 6.05955 5.18598 6.05955 3.76486C6.05955 2.34313 6.6732 1.19117 7.43024 1.19117C8.18727 1.19117 8.80093 2.34374 8.80093 3.76486ZM10.0313 3.76486C10.0313 5.03833 9.81558 6.07061 9.54885 6.07061C9.28273 6.07061 9.06704 5.03773 9.06704 3.76486C9.06704 2.49138 9.28273 1.45911 9.54946 1.45911C9.81558 1.45911 10.0313 2.49138 10.0313 3.76486Z" fill="white"/>
</g>
<defs>
<clipPath id="clip0_65_1085">
<rect width="10" height="6" fill="white" transform="translate(0.310059 0.580078)"/>
</clipPath>
</defs>
</svg>
