<svg width="14" height="14" viewBox="0 0 14 14" fill="none" xmlns="http://www.w3.org/2000/svg">
<g clip-path="url(#clip0_65_1090)">
<path d="M6.65535 0.0800781C3.30153 0.0800781 0.57959 2.80202 0.57959 6.15583C0.57959 9.50965 3.30153 12.2316 6.65535 12.2316C10.0092 12.2316 12.7311 9.50965 12.7311 6.15583C12.7311 2.80202 10.0092 0.0800781 6.65535 0.0800781ZM9.4745 4.21159C9.38336 5.17156 8.98844 7.50465 8.78794 8.58006C8.70287 9.03574 8.53275 9.18764 8.37478 9.20586C8.02239 9.23624 7.75506 8.97498 7.41481 8.75018C6.88015 8.39779 6.57636 8.17906 6.05992 7.83882C5.45842 7.44389 5.84727 7.22517 6.19359 6.87277C6.28472 6.78164 7.84012 5.36599 7.8705 5.2384C7.87472 5.21907 7.87415 5.19901 7.86886 5.17995C7.86357 5.16089 7.8537 5.14341 7.84012 5.12903C7.80366 5.09865 7.75506 5.1108 7.71253 5.11688C7.65784 5.12903 6.80724 5.69408 5.14856 6.81202C4.90553 6.97606 4.6868 7.06112 4.49238 7.05505C4.27365 7.04897 3.8605 6.93353 3.55063 6.83024C3.16786 6.70873 2.87015 6.64189 2.89445 6.42924C2.9066 6.31988 3.0585 6.21052 3.34406 6.09508C5.11818 5.32346 6.29688 4.81309 6.88622 4.57006C8.57528 3.86528 8.9216 3.74376 9.15248 3.74376C9.20109 3.74376 9.31653 3.75591 9.38943 3.81667C9.45019 3.86527 9.46842 3.93211 9.4745 3.98071C9.46842 4.01717 9.48057 4.12653 9.4745 4.21159Z" fill="white"/>
</g>
<defs>
<clipPath id="clip0_65_1090">
<rect width="13" height="13" fill="white" transform="translate(0.310059 0.0800781)"/>
</clipPath>
</defs>
</svg>
